<?xml version="1.0" encoding="UTF-8"?>
<svg width="320px" height="320px" viewBox="0 0 320 320" version="1.1" xmlns="http://www.w3.org/2000/svg" xmlns:xlink="http://www.w3.org/1999/xlink">
    <!-- Generator: Sketch 52.4 (67378) - http://www.bohemiancoding.com/sketch -->
    <title>meta-bug-icon-rounded</title>
    <desc>Created with Sketch.</desc>
    <g id="Page-1" stroke="none" stroke-width="1" fill="none" fill-rule="evenodd">
        <g id="meta-bug-icon-rounded" fill="#000000">
            <g id="Group">
                <path d="M320,95.97125 C320,75.61875 319.515,45.34625 300.56875,25.5 C282.2875,6.35125 264.225,0 225.8125,0 L94.1875,0 C55.775,0 37.7125,6.35125 19.43125,25.5 C0.485,45.34625 0,75.61875 0,95.97125 L0,224.0275 C0,244.38125 0.485,274.6525 19.43125,294.49875 C37.7125,313.64875 55.775,320 94.1875,320 L225.8125,320 C264.225,320 282.2875,313.64875 300.56875,294.49875 C319.515,274.6525 320,244.38125 320,224.0275 L320,95.97125 Z" id="Fill-1"></path>
            </g>
        </g>
    </g>
</svg>