<?xml version="1.0" encoding="UTF-8"?>
<svg width="256px" height="256px" viewBox="0 0 256 256" version="1.1" xmlns="http://www.w3.org/2000/svg" xmlns:xlink="http://www.w3.org/1999/xlink">
    <!-- Generator: Sketch 53.1 (72631) - https://sketchapp.com -->
    <title>logo / universe-bug-icon-rounded-white</title>
    <desc>Created with Sketch.</desc>
    <g id="Symbols" stroke="none" stroke-width="1" fill="none" fill-rule="evenodd">
        <g id="Logo-/-universe-bug-icon-rounded-white">
            <g id="universe-bug-icon-rounded-white">
                <path d="M256,76.778 C256,60.496 255.612,36.278 240.455,20.401 C225.83,5.081 211.38,0 180.65,0 L75.35,0 C44.62,0 30.17,5.081 15.545,20.401 C0.388,36.278 0,60.496 0,76.778 L0,179.223 C0,195.505 0.388,219.723 15.545,235.6 C30.17,250.92 44.62,256 75.35,256 L180.65,256 C211.38,256 225.83,250.92 240.455,235.6 C255.612,219.723 256,195.505 256,179.223 L256,76.778 Z" id="Fill-1" fill="#FFFFFF"></path>
                <path d="M108,33.0004 L100,28.0004 L108,23.0004 L116,28.0004 L108,33.0004 Z M68,33.0004 L60,28.0004 L68,23.0004 L76,28.0004 L68,33.0004 Z M148,33.0004 L140,28.0004 L148,23.0004 L156,28.0004 L148,33.0004 Z M188,33.0004 L180,28.0004 L188,23.0004 L196,28.0004 L188,33.0004 Z M28,73.0004 L20,68.0004 L28,63.0004 L36,68.0004 L28,73.0004 Z M68,73.0004 L60,68.0004 L68,63.0004 L76,68.0004 L68,73.0004 Z M108,73.0004 L100,68.0004 L108,63.0004 L116,68.0004 L108,73.0004 Z M148,73.0004 L140,68.0004 L148,63.0004 L156,68.0004 L148,73.0004 Z M188,73.0004 L180,68.0004 L188,63.0004 L196,68.0004 L188,73.0004 Z M228,73.0004 L220,68.0004 L228,63.0004 L236,68.0004 L228,73.0004 Z M28,113.0004 L20,108.0004 L28,103.0004 L36,108.0004 L28,113.0004 Z M68,113.0004 L60,108.0004 L68,103.0004 L76,108.0004 L68,113.0004 Z M108,113.0004 L100,108.0004 L108,103.0004 L116,108.0004 L108,113.0004 Z M148,113.0004 L140,108.0004 L148,103.0004 L156,108.0004 L148,113.0004 Z M188,113.0004 L180,108.0004 L188,103.0004 L196,108.0004 L188,113.0004 Z M228,113.0004 L220,108.0004 L228,103.0004 L236,108.0004 L228,113.0004 Z M28,153.0004 L20,148.0004 L28,143.0004 L36,148.0004 L28,153.0004 Z M68,153.0004 L60,148.0004 L68,143.0004 L76,148.0004 L68,153.0004 Z M108,153.0004 L100,148.0004 L108,143.0004 L116,148.0004 L108,153.0004 Z M148,153.0004 L140,148.0004 L148,143.0004 L156,148.0004 L148,153.0004 Z M188,153.0004 L180,148.0004 L188,143.0004 L196,148.0004 L188,153.0004 Z M228,153.0004 L220,148.0004 L228,143.0004 L236,148.0004 L228,153.0004 Z M28,193.0004 L20,188.0004 L28,183.0004 L36,188.0004 L28,193.0004 Z M68,193.0004 L60,188.0004 L68,183.0004 L76,188.0004 L68,193.0004 Z M108,193.0004 L100,188.0004 L108,183.0004 L116,188.0004 L108,193.0004 Z M148,193.0004 L140,188.0004 L148,183.0004 L156,188.0004 L148,193.0004 Z M188,193.0004 L180,188.0004 L188,183.0004 L196,188.0004 L188,193.0004 Z M228,193.0004 L220,188.0004 L228,183.0004 L236,188.0004 L228,193.0004 Z M68,233.0004 L60,228.0004 L68,223.0004 L76,228.0004 L68,233.0004 Z M108,233.0004 L100,228.0004 L108,223.0004 L116,228.0004 L108,233.0004 Z M148,233.0004 L140,228.0004 L148,223.0004 L156,228.0004 L148,233.0004 Z M188,233.0004 L180,228.0004 L188,223.0004 L196,228.0004 L188,233.0004 Z" id="universe-bug-rhombi" fill="#000000"></path>
            </g>
        </g>
    </g>
</svg>