<?xml version="1.0" encoding="UTF-8"?>
<svg width="256px" height="256px" viewBox="0 0 256 256" version="1.1" xmlns="http://www.w3.org/2000/svg" xmlns:xlink="http://www.w3.org/1999/xlink">
    <!-- Generator: Sketch 53.1 (72631) - https://sketchapp.com -->
    <title>logo / universe-mite-icon-rounded-white</title>
    <desc>Created with Sketch.</desc>
    <g id="Symbols" stroke="none" stroke-width="1" fill="none" fill-rule="evenodd">
        <g id="Logo-/-universe-mite-icon-rounded-white">
            <g id="universe-mite-icon-rounded-white">
                <path d="M256,76.778 C256,60.496 255.612,36.278 240.455,20.401 C225.83,5.081 211.38,0 180.65,0 L75.35,0 C44.62,0 30.17,5.081 15.545,20.401 C0.388,36.278 0,60.496 0,76.778 L0,179.223 C0,195.505 0.388,219.723 15.545,235.6 C30.17,250.92 44.62,256 75.35,256 L180.65,256 C211.38,256 225.83,250.92 240.455,235.6 C255.612,219.723 256,195.505 256,179.223 L256,76.778 Z" id="Fill-1" fill="#FFFFFF"></path>
                <path d="M27.5,61.0004 L39,68.0004 L27.5,75.0004 L16,68.0004 L27.5,61.0004 Z M67.5,61.0004 L79,68.0004 L67.5,75.0004 L56,68.0004 L67.5,61.0004 Z M107.5,61.0004 L119,68.0004 L107.5,75.0004 L96,68.0004 L107.5,61.0004 Z M147.5,61.0004 L159,68.0004 L147.5,75.0004 L136,68.0004 L147.5,61.0004 Z M187.5,61.0004 L199,68.0004 L187.5,75.0004 L176,68.0004 L187.5,61.0004 Z M227.5,61.0004 L239,68.0004 L227.5,75.0004 L216,68.0004 L227.5,61.0004 Z M27.5,101.0004 L39,108.0004 L27.5,115.0004 L16,108.0004 L27.5,101.0004 Z M67.5,101.0004 L79,108.0004 L67.5,115.0004 L56,108.0004 L67.5,101.0004 Z M107.5,101.0004 L119,108.0004 L107.5,115.0004 L96,108.0004 L107.5,101.0004 Z M147.5,101.0004 L159,108.0004 L147.5,115.0004 L136,108.0004 L147.5,101.0004 Z M187.5,101.0004 L199,108.0004 L187.5,115.0004 L176,108.0004 L187.5,101.0004 Z M227.5,101.0004 L239,108.0004 L227.5,115.0004 L216,108.0004 L227.5,101.0004 Z M27.5,141.0004 L39,148.0004 L27.5,155.0004 L16,148.0004 L27.5,141.0004 Z M67.5,141.0004 L79,148.0004 L67.5,155.0004 L56,148.0004 L67.5,141.0004 Z M107.5,141.0004 L119,148.0004 L107.5,155.0004 L96,148.0004 L107.5,141.0004 Z M147.5,141.0004 L159,148.0004 L147.5,155.0004 L136,148.0004 L147.5,141.0004 Z M187.5,141.0004 L199,148.0004 L187.5,155.0004 L176,148.0004 L187.5,141.0004 Z M227.5,141.0004 L239,148.0004 L227.5,155.0004 L216,148.0004 L227.5,141.0004 Z M27.5,181.0004 L39,188.0004 L27.5,195.0004 L16,188.0004 L27.5,181.0004 Z M67.5,181.0004 L79,188.0004 L67.5,195.0004 L56,188.0004 L67.5,181.0004 Z M107.5,181.0004 L119,188.0004 L107.5,195.0004 L96,188.0004 L107.5,181.0004 Z M147.5,181.0004 L159,188.0004 L147.5,195.0004 L136,188.0004 L147.5,181.0004 Z M187.5,181.0004 L199,188.0004 L187.5,195.0004 L176,188.0004 L187.5,181.0004 Z M227.5,181.0004 L239,188.0004 L227.5,195.0004 L216,188.0004 L227.5,181.0004 Z M67.5,221.0004 L79,228.0004 L67.5,235.0004 L56,228.0004 L67.5,221.0004 Z M107.5,221.0004 L119,228.0004 L107.5,235.0004 L96,228.0004 L107.5,221.0004 Z M147.5,221.0004 L159,228.0004 L147.5,235.0004 L136,228.0004 L147.5,221.0004 Z M187.5,221.0004 L199,228.0004 L187.5,235.0004 L176,228.0004 L187.5,221.0004 Z M67.5,21.0004 L79,28.0004 L67.5,35.0004 L56,28.0004 L67.5,21.0004 Z M107.5,21.0004 L119,28.0004 L107.5,35.0004 L96,28.0004 L107.5,21.0004 Z M147.5,21.0004 L159,28.0004 L147.5,35.0004 L136,28.0004 L147.5,21.0004 Z M187.5,21.0004 L199,28.0004 L187.5,35.0004 L176,28.0004 L187.5,21.0004 Z" id="universe-bug-rhombi-lg" fill="#000000"></path>
            </g>
        </g>
    </g>
</svg>