<?xml version="1.0" encoding="UTF-8"?>
<svg width="256px" height="256px" viewBox="0 0 256 256" version="1.1" xmlns="http://www.w3.org/2000/svg" xmlns:xlink="http://www.w3.org/1999/xlink">
    <!-- Generator: Sketch 53.1 (72631) - https://sketchapp.com -->
    <title>logo / universe-mite-icon-squared</title>
    <desc>Created with Sketch.</desc>
    <g id="Symbols" stroke="none" stroke-width="1" fill="none" fill-rule="evenodd">
        <g id="Logo-/-universe-mite-icon-squared">
            <g id="universe-mite-icon-squared">
                <rect id="Rectangle" fill="#000000" x="0" y="0" width="256" height="256"></rect>
                <path d="M54.5,79 L63,84 L54.5,89 L46,84 L54.5,79 Z M83.5,79 L92,84 L83.5,89 L75,84 L83.5,79 Z M112.5,79 L121,84 L112.5,89 L104,84 L112.5,79 Z M142.5,79 L151,84 L142.5,89 L134,84 L142.5,79 Z M171.5,79 L180,84 L171.5,89 L163,84 L171.5,79 Z M200.5,79 L209,84 L200.5,89 L192,84 L200.5,79 Z M54.5,108 L63,113 L54.5,118 L46,113 L54.5,108 Z M83.5,108 L92,113 L83.5,118 L75,113 L83.5,108 Z M112.5,108 L121,113 L112.5,118 L104,113 L112.5,108 Z M142.5,108 L151,113 L142.5,118 L134,113 L142.5,108 Z M171.5,108 L180,113 L171.5,118 L163,113 L171.5,108 Z M200.5,108 L209,113 L200.5,118 L192,113 L200.5,108 Z M54.5,138 L63,143 L54.5,148 L46,143 L54.5,138 Z M83.5,138 L92,143 L83.5,148 L75,143 L83.5,138 Z M112.5,138 L121,143 L112.5,148 L104,143 L112.5,138 Z M142.5,138 L151,143 L142.5,148 L134,143 L142.5,138 Z M171.5,138 L180,143 L171.5,148 L163,143 L171.5,138 Z M200.5,138 L209,143 L200.5,148 L192,143 L200.5,138 Z M54.5,167 L63,172 L54.5,177 L46,172 L54.5,167 Z M83.5,167 L92,172 L83.5,177 L75,172 L83.5,167 Z M112.5,167 L121,172 L112.5,177 L104,172 L112.5,167 Z M142.5,167 L151,172 L142.5,177 L134,172 L142.5,167 Z M171.5,167 L180,172 L171.5,177 L163,172 L171.5,167 Z M200.5,167 L209,172 L200.5,177 L192,172 L200.5,167 Z M83.5,197 L92,202 L83.5,207 L75,202 L83.5,197 Z M112.5,197 L121,202 L112.5,207 L104,202 L112.5,197 Z M142.5,197 L151,202 L142.5,207 L134,202 L142.5,197 Z M171.5,197 L180,202 L171.5,207 L163,202 L171.5,197 Z M83.5,49 L92,54 L83.5,59 L75,54 L83.5,49 Z M112.5,49 L121,54 L112.5,59 L104,54 L112.5,49 Z M142.5,49 L151,54 L142.5,59 L134,54 L142.5,49 Z M171.5,49 L180,54 L171.5,59 L163,54 L171.5,49 Z" id="universe-bug-rhombi-lg" fill="#FFFFFF"></path>
            </g>
        </g>
    </g>
</svg>