<?xml version="1.0" encoding="UTF-8"?>
<svg width="256px" height="256px" viewBox="0 0 256 256" version="1.1" xmlns="http://www.w3.org/2000/svg" xmlns:xlink="http://www.w3.org/1999/xlink">
    <!-- Generator: Sketch 53.1 (72631) - https://sketchapp.com -->
    <title>logo / universe-bug-icon-squared</title>
    <desc>Created with Sketch.</desc>
    <g id="Symbols" stroke="none" stroke-width="1" fill="none" fill-rule="evenodd">
        <g id="Logo-/-universe-bug-icon-squared">
            <g id="universe-bug-icon-squared">
                <rect id="Rectangle" fill="#000000" x="0" y="0" width="256" height="256"></rect>
                <path d="M108,33 L100,28 L108,23 L116,28 L108,33 Z M68,33 L60,28 L68,23 L76,28 L68,33 Z M148,33 L140,28 L148,23 L156,28 L148,33 Z M188,33 L180,28 L188,23 L196,28 L188,33 Z M28,73 L20,68 L28,63 L36,68 L28,73 Z M68,73 L60,68 L68,63 L76,68 L68,73 Z M108,73 L100,68 L108,63 L116,68 L108,73 Z M148,73 L140,68 L148,63 L156,68 L148,73 Z M188,73 L180,68 L188,63 L196,68 L188,73 Z M228,73 L220,68 L228,63 L236,68 L228,73 Z M28,113 L20,108 L28,103 L36,108 L28,113 Z M68,113 L60,108 L68,103 L76,108 L68,113 Z M108,113 L100,108 L108,103 L116,108 L108,113 Z M148,113 L140,108 L148,103 L156,108 L148,113 Z M188,113 L180,108 L188,103 L196,108 L188,113 Z M228,113 L220,108 L228,103 L236,108 L228,113 Z M28,153 L20,148 L28,143 L36,148 L28,153 Z M68,153 L60,148 L68,143 L76,148 L68,153 Z M108,153 L100,148 L108,143 L116,148 L108,153 Z M148,153 L140,148 L148,143 L156,148 L148,153 Z M188,153 L180,148 L188,143 L196,148 L188,153 Z M228,153 L220,148 L228,143 L236,148 L228,153 Z M28,193 L20,188 L28,183 L36,188 L28,193 Z M68,193 L60,188 L68,183 L76,188 L68,193 Z M108,193 L100,188 L108,183 L116,188 L108,193 Z M148,193 L140,188 L148,183 L156,188 L148,193 Z M188,193 L180,188 L188,183 L196,188 L188,193 Z M228,193 L220,188 L228,183 L236,188 L228,193 Z M68,233 L60,228 L68,223 L76,228 L68,233 Z M108,233 L100,228 L108,223 L116,228 L108,233 Z M148,233 L140,228 L148,223 L156,228 L148,233 Z M188,233 L180,228 L188,223 L196,228 L188,233 Z" id="universe-bug-rhombi" fill="#FFFFFF"></path>
            </g>
        </g>
    </g>
</svg>