<?xml version="1.0" encoding="UTF-8"?>
<svg width="256px" height="256px" viewBox="0 0 256 256" version="1.1" xmlns="http://www.w3.org/2000/svg" xmlns:xlink="http://www.w3.org/1999/xlink">
    <!-- Generator: Sketch 53.1 (72631) - https://sketchapp.com -->
    <title>logo / universe-mite-icon-rounded</title>
    <desc>Created with Sketch.</desc>
    <g id="Symbols" stroke="none" stroke-width="1" fill="none" fill-rule="evenodd">
        <g id="Logo-/-universe-mite-icon-rounded">
            <g id="universe-mite-icon-rounded">
                <path d="M256,76.7776 C256,60.4956 255.612,36.2776 240.455,20.4006 C225.83,5.0806 211.38,-0.0004 180.65,-0.0004 L75.35,-0.0004 C44.62,-0.0004 30.17,5.0806 15.545,20.4006 C0.388,36.2776 0,60.4956 0,76.7776 L0,179.2226 C0,195.5046 0.388,219.7226 15.545,235.5996 C30.17,250.9196 44.62,255.9996 75.35,255.9996 L180.65,255.9996 C211.38,255.9996 225.83,250.9196 240.455,235.5996 C255.612,219.7226 256,195.5046 256,179.2226 L256,76.7776 Z" id="Fill-1" fill="#000000"></path>
                <path d="M27.5,61 L39,68 L27.5,75 L16,68 L27.5,61 Z M67.5,61 L79,68 L67.5,75 L56,68 L67.5,61 Z M107.5,61 L119,68 L107.5,75 L96,68 L107.5,61 Z M147.5,61 L159,68 L147.5,75 L136,68 L147.5,61 Z M187.5,61 L199,68 L187.5,75 L176,68 L187.5,61 Z M227.5,61 L239,68 L227.5,75 L216,68 L227.5,61 Z M27.5,101 L39,108 L27.5,115 L16,108 L27.5,101 Z M67.5,101 L79,108 L67.5,115 L56,108 L67.5,101 Z M107.5,101 L119,108 L107.5,115 L96,108 L107.5,101 Z M147.5,101 L159,108 L147.5,115 L136,108 L147.5,101 Z M187.5,101 L199,108 L187.5,115 L176,108 L187.5,101 Z M227.5,101 L239,108 L227.5,115 L216,108 L227.5,101 Z M27.5,141 L39,148 L27.5,155 L16,148 L27.5,141 Z M67.5,141 L79,148 L67.5,155 L56,148 L67.5,141 Z M107.5,141 L119,148 L107.5,155 L96,148 L107.5,141 Z M147.5,141 L159,148 L147.5,155 L136,148 L147.5,141 Z M187.5,141 L199,148 L187.5,155 L176,148 L187.5,141 Z M227.5,141 L239,148 L227.5,155 L216,148 L227.5,141 Z M27.5,181 L39,188 L27.5,195 L16,188 L27.5,181 Z M67.5,181 L79,188 L67.5,195 L56,188 L67.5,181 Z M107.5,181 L119,188 L107.5,195 L96,188 L107.5,181 Z M147.5,181 L159,188 L147.5,195 L136,188 L147.5,181 Z M187.5,181 L199,188 L187.5,195 L176,188 L187.5,181 Z M227.5,181 L239,188 L227.5,195 L216,188 L227.5,181 Z M67.5,221 L79,228 L67.5,235 L56,228 L67.5,221 Z M107.5,221 L119,228 L107.5,235 L96,228 L107.5,221 Z M147.5,221 L159,228 L147.5,235 L136,228 L147.5,221 Z M187.5,221 L199,228 L187.5,235 L176,228 L187.5,221 Z M67.5,21 L79,28 L67.5,35 L56,28 L67.5,21 Z M107.5,21 L119,28 L107.5,35 L96,28 L107.5,21 Z M147.5,21 L159,28 L147.5,35 L136,28 L147.5,21 Z M187.5,21 L199,28 L187.5,35 L176,28 L187.5,21 Z" id="universe-bug-rhombi-lg" fill="#FFFFFF"></path>
            </g>
        </g>
    </g>
</svg>