<?xml version="1.0" encoding="UTF-8"?>
<svg width="256px" height="256px" viewBox="0 0 256 256" version="1.1" xmlns="http://www.w3.org/2000/svg" xmlns:xlink="http://www.w3.org/1999/xlink">
    <!-- Generator: Sketch 52.6 (67491) - http://www.bohemiancoding.com/sketch -->
    <title>logo / meta-wordmark-icon-rounded</title>
    <desc>Created with Sketch.</desc>
    <g id="Symbols" stroke="none" stroke-width="1" fill="none" fill-rule="evenodd">
        <g id="Logo-/-meta-wordmark-icon-rounded">
            <g id="meta-wordmark-icon-rounded">
                <path d="M256,76.777 C256,60.495 255.612,36.277 240.455,20.4 C225.83,5.081 211.38,0 180.65,0 L75.35,0 C44.62,0 30.17,5.081 15.545,20.4 C0.388,36.277 0,60.495 0,76.777 L0,179.222 C0,195.505 0.388,219.722 15.545,235.599 C30.17,250.919 44.62,256 75.35,256 L180.65,256 C211.38,256 225.83,250.919 240.455,235.599 C255.612,219.722 256,195.505 256,179.222 L256,76.777 Z" id="Path" fill="#000000"></path>
                <path d="M50.2734,125.9551 C50.2734,121.5921 49.7114,118.5011 48.5914,116.6841 C47.4684,114.8631 45.5454,113.9551 42.8194,113.9551 C41.9694,113.9551 41.0914,114.0001 40.1814,114.0911 C39.2724,114.1821 38.3924,114.2881 37.5454,114.4101 L37.5454,151.3191 L24.0004,151.3191 L24.0004,105.1371 C25.1504,104.8341 26.5004,104.5171 28.0444,104.1831 C29.5904,103.8511 31.2274,103.5461 32.9544,103.2731 C34.6834,102.9991 36.4554,102.7891 38.2734,102.6371 C40.0904,102.4861 41.8794,102.4101 43.6344,102.4101 C47.0904,102.4101 49.8934,102.8491 52.0444,103.7261 C54.1944,104.6061 55.9684,105.6511 57.3644,106.8631 C59.3014,105.4711 61.5314,104.3801 64.0444,103.5911 C66.5594,102.8041 68.8774,102.4101 71.0014,102.4101 C74.8194,102.4101 77.9564,102.9391 80.4084,104.0011 C82.8644,105.0621 84.8184,106.5601 86.2734,108.5001 C87.7274,110.4411 88.7274,112.7431 89.2734,115.4091 C89.8174,118.0761 90.0914,121.0461 90.0914,124.3181 L90.0914,151.3191 L76.5454,151.3191 L76.5454,125.9551 C76.5454,121.5921 75.9854,118.5011 74.8644,116.6841 C73.7414,114.8631 71.8184,113.9551 69.0894,113.9551 C68.3654,113.9551 67.3464,114.1361 66.0444,114.5011 C64.7424,114.8631 63.6664,115.3191 62.8174,115.8651 C63.2414,117.2581 63.5134,118.7271 63.6374,120.2731 C63.7564,121.8181 63.8184,123.4721 63.8184,125.2271 L63.8184,151.3191 L50.2734,151.3191 L50.2734,125.9551 Z M131.9092,122.5918 C131.8492,121.4418 131.6512,120.3188 131.3182,119.2288 C130.9842,118.1358 130.4692,117.1668 129.7722,116.3188 C129.0762,115.4718 128.1952,114.7728 127.1372,114.2288 C126.0752,113.6828 124.7562,113.4078 123.1812,113.4078 C121.6652,113.4078 120.3622,113.6678 119.2722,114.1818 C118.1822,114.6978 117.2712,115.3808 116.5462,116.2278 C115.8182,117.0768 115.2562,118.0618 114.8642,119.1828 C114.4692,120.3038 114.1822,121.4418 113.9992,122.5918 L131.9092,122.5918 Z M100.0912,127.7728 C100.0912,123.5308 100.7422,119.8198 102.0462,116.6378 C103.3482,113.4558 105.0592,110.8038 107.1812,108.6838 C109.3032,106.5608 111.7402,104.9548 114.5002,103.8648 C117.2572,102.7728 120.0912,102.2268 123.0012,102.2268 C129.7872,102.2268 135.1512,104.3038 139.0912,108.4538 C143.0312,112.6068 145.0022,118.7128 145.0022,126.7728 C145.0022,127.5628 144.9692,128.4258 144.9112,129.3628 C144.8482,130.3048 144.7872,131.1378 144.7272,131.8648 L113.9992,131.8648 C114.3042,134.6538 115.6062,136.8638 117.9102,138.5008 C120.2122,140.1368 123.3022,140.9548 127.1812,140.9548 C129.6652,140.9548 132.1052,140.7288 134.5002,140.2738 C136.8942,139.8198 138.8472,139.2588 140.3652,138.5918 L142.1822,149.5918 C141.4552,149.9548 140.4842,150.3198 139.2722,150.6818 C138.0602,151.0468 136.7132,151.3638 135.2272,151.6368 C133.7412,151.9098 132.1502,152.1368 130.4542,152.3188 C128.7592,152.4998 127.0602,152.5928 125.3642,152.5928 C121.0592,152.5928 117.3162,151.9558 114.1352,150.6818 C110.9532,149.4098 108.3192,147.6688 106.2272,145.4558 C104.1362,143.2418 102.5912,140.6228 101.5912,137.5918 C100.5922,134.5628 100.0912,131.2878 100.0912,127.7728 Z M155.001,91.5898 L168.546,89.4068 L168.546,103.4998 L184.82,103.4998 L184.82,114.7728 L168.546,114.7728 L168.546,131.5908 C168.546,134.4418 169.047,136.7138 170.046,138.4098 C171.046,140.1088 173.062,140.9548 176.091,140.9548 C177.546,140.9548 179.046,140.8188 180.592,140.5448 C182.137,140.2738 183.547,139.8958 184.82,139.4088 L186.729,149.9548 C185.092,150.6218 183.274,151.1968 181.273,151.6818 C179.272,152.1678 176.818,152.4088 173.91,152.4088 C170.213,152.4088 167.151,151.9098 164.728,150.9088 C162.304,149.9088 160.362,148.5168 158.91,146.7278 C157.455,144.9408 156.438,142.7728 155.864,140.2278 C155.287,137.6828 155.001,134.8628 155.001,131.7748 L155.001,91.5898 Z M212.2744,141.8642 C213.6054,141.8642 214.8784,141.8352 216.0904,141.7732 C217.3024,141.7142 218.2754,141.6232 219.0014,141.5012 L219.0014,131.2282 C218.4564,131.1062 217.6364,130.9872 216.5454,130.8632 C215.4564,130.7442 214.4544,130.6812 213.5474,130.6812 C212.2744,130.6812 211.0774,130.7592 209.9564,130.9092 C208.8334,131.0612 207.8494,131.3492 207.0034,131.7742 C206.1514,132.1992 205.4854,132.7732 205.0024,133.5012 C204.5154,134.2282 204.2744,135.1372 204.2744,136.2272 C204.2744,138.3502 204.9854,139.8192 206.4094,140.6372 C207.8334,141.4562 209.7894,141.8642 212.2744,141.8642 Z M211.1814,102.2262 C215.1834,102.2262 218.5144,102.6812 221.1824,103.5912 C223.8494,104.5002 225.9864,105.8042 227.5914,107.5002 C229.1974,109.1982 230.3354,111.2592 231.0034,113.6822 C231.6664,116.1062 232.0004,118.8032 232.0004,121.7732 L232.0004,149.9552 C230.0604,150.3792 227.3654,150.8802 223.9094,151.4552 C220.4554,152.0302 216.2744,152.3182 211.3634,152.3182 C208.2744,152.3182 205.4694,152.0462 202.9554,151.5002 C200.4414,150.9562 198.2734,150.0612 196.4554,148.8192 C194.6374,147.5762 193.2424,145.9552 192.2744,143.9562 C191.3034,141.9552 190.8194,139.5002 190.8194,136.5932 C190.8194,133.8042 191.3784,131.4402 192.5014,129.5012 C193.6224,127.5622 195.1224,126.0162 196.9994,124.8642 C198.8784,123.7152 201.0304,122.8802 203.4564,122.3652 C205.8774,121.8492 208.3954,121.5922 211.0014,121.5922 C212.7584,121.5922 214.3184,121.6682 215.6824,121.8182 C217.0464,121.9702 218.1514,122.1692 219.0014,122.4102 L219.0014,121.1362 C219.0014,118.8352 218.3034,116.9862 216.9114,115.5912 C215.5154,114.1982 213.0914,113.5012 209.6364,113.5012 C207.3324,113.5012 205.0614,113.6682 202.8194,114.0002 C200.5774,114.3342 198.6374,114.8032 196.9994,115.4092 L195.2724,104.5002 C196.0594,104.2592 197.0464,104.0012 198.2274,103.7262 C199.4104,103.4552 200.6964,103.2142 202.0914,102.9992 C203.4874,102.7892 204.9544,102.6082 206.5004,102.4552 C208.0454,102.3042 209.6074,102.2262 211.1814,102.2262 Z" id="meta-wordmark" fill="#FFFFFF"></path>
            </g>
        </g>
    </g>
</svg>