<?xml version="1.0" encoding="UTF-8"?>
<svg width="256px" height="256px" viewBox="0 0 256 256" version="1.1" xmlns="http://www.w3.org/2000/svg" xmlns:xlink="http://www.w3.org/1999/xlink">
    <!-- Generator: Sketch 52.6 (67491) - http://www.bohemiancoding.com/sketch -->
    <title>logo / meta-mite-icon-squared</title>
    <desc>Created with Sketch.</desc>
    <g id="Symbols" stroke="none" stroke-width="1" fill="none" fill-rule="evenodd">
        <g id="Logo-/-meta-mite-icon-squared">
            <g id="meta-mite-icon-squared">
                <rect id="Rectangle" fill="#000000" x="0" y="0" width="256" height="256"></rect>
                <path d="M112.0156,125.8525 C112.0156,115.5565 110.6876,108.2605 108.0466,103.9705 C105.3956,99.6755 100.8586,97.5315 94.4226,97.5315 C92.4186,97.5315 90.3476,97.6385 88.1976,97.8525 C86.0526,98.0665 83.9756,98.3195 81.9766,98.6065 L81.9766,185.7155 L50.0076,185.7155 L50.0076,76.7195 C52.7216,76.0035 55.9076,75.2545 59.5556,74.4675 C63.2026,73.6845 67.0646,72.9645 71.1406,72.3225 C75.2216,71.6755 79.4046,71.1795 83.6946,70.8195 C87.9836,70.4645 92.2046,70.2845 96.3496,70.2845 C104.5056,70.2845 111.1196,71.3205 116.1986,73.3925 C121.2716,75.4695 125.4586,77.9355 128.7506,80.7945 C133.3236,77.5065 138.5856,74.9345 144.5196,73.0715 C150.4536,71.2135 155.9246,70.2845 160.9346,70.2845 C169.9476,70.2845 177.3496,71.5345 183.1376,74.0395 C188.9356,76.5435 193.5456,80.0805 196.9796,84.6575 C200.4136,89.2385 202.7726,94.6705 204.0616,100.9645 C205.3456,107.2585 205.9926,114.2675 205.9926,121.9915 L205.9926,185.7155 L174.0236,185.7155 L174.0236,125.8525 C174.0236,115.5565 172.7006,108.2605 170.0546,103.9705 C167.4036,99.6755 162.8656,97.5315 156.4256,97.5315 C154.7136,97.5315 152.3116,97.9585 149.2376,98.8205 C146.1636,99.6755 143.6246,100.7505 141.6206,102.0405 C142.6226,105.3285 143.2646,108.7955 143.5566,112.4435 C143.8386,116.0905 143.9846,119.9925 143.9846,124.1355 L143.9846,185.7155 L112.0156,185.7155 L112.0156,125.8525 Z" id="meta-bug" fill="#FFFFFF"></path>
            </g>
        </g>
    </g>
</svg>