<?xml version="1.0" encoding="UTF-8"?>
<svg width="360px" height="132px" viewBox="0 0 360 132" version="1.1" xmlns="http://www.w3.org/2000/svg" xmlns:xlink="http://www.w3.org/1999/xlink">
    <!-- Generator: Sketch 52.2 (67145) - http://www.bohemiancoding.com/sketch -->
    <title>logo/rgb/universe-logo</title>
    <desc>Created with Sketch.</desc>
    <g id="Symbols" stroke="none" stroke-width="1" fill="none" fill-rule="evenodd">
        <g id="logo/rgb/universe-logo" fill="#000000">
            <g id="universe-logo">
                <g id="universe-bug-diamonds" transform="translate(33.000000, 26.000000)">
                    <polygon id="Fill-13" points="33.6113 3.8195 30.5553 1.9095 33.6113 0.0005 36.6663 1.9095"></polygon>
                    <polygon id="Fill-14" points="18.3335 3.8195 15.2775 1.9095 18.3335 0.0005 21.3885 1.9095"></polygon>
                    <polygon id="Fill-15" points="48.8887 3.8195 45.8337 1.9095 48.8887 0.0005 51.9447 1.9095"></polygon>
                    <polygon id="Fill-16" points="64.1665 3.8195 61.1115 1.9095 64.1665 0.0005 67.2225 1.9095"></polygon>
                    <polygon id="Fill-17" points="3.0557 19.0973 -0.0003 17.1873 3.0557 15.2783 6.1117 17.1873"></polygon>
                    <polygon id="Fill-18" points="18.3335 19.0973 15.2775 17.1873 18.3335 15.2783 21.3885 17.1873"></polygon>
                    <polygon id="Fill-19" points="33.6113 19.0973 30.5553 17.1873 33.6113 15.2783 36.6663 17.1873"></polygon>
                    <polygon id="Fill-20" points="48.8887 19.0973 45.8337 17.1873 48.8887 15.2783 51.9447 17.1873"></polygon>
                    <polygon id="Fill-21" points="64.1665 19.0973 61.1115 17.1873 64.1665 15.2783 67.2225 17.1873"></polygon>
                    <polygon id="Fill-22" points="79.4443 19.0973 76.3883 17.1873 79.4443 15.2783 82.5003 17.1873"></polygon>
                    <polygon id="Fill-23" points="3.0557 34.3752 -0.0003 32.4652 3.0557 30.5552 6.1117 32.4652"></polygon>
                    <polygon id="Fill-24" points="18.3335 34.3752 15.2775 32.4652 18.3335 30.5552 21.3885 32.4652"></polygon>
                    <polygon id="Fill-25" points="33.6113 34.3752 30.5553 32.4652 33.6113 30.5552 36.6663 32.4652"></polygon>
                    <polygon id="Fill-26" points="48.8887 34.3752 45.8337 32.4652 48.8887 30.5552 51.9447 32.4652"></polygon>
                    <polygon id="Fill-27" points="64.1665 34.3752 61.1115 32.4652 64.1665 30.5552 67.2225 32.4652"></polygon>
                    <polygon id="Fill-28" points="79.4443 34.3752 76.3883 32.4652 79.4443 30.5552 82.5003 32.4652"></polygon>
                    <polygon id="Fill-29" points="3.0557 49.653 -0.0003 47.743 3.0557 45.833 6.1117 47.743"></polygon>
                    <polygon id="Fill-30" points="18.3335 49.653 15.2775 47.743 18.3335 45.833 21.3885 47.743"></polygon>
                    <polygon id="Fill-31" points="33.6113 49.653 30.5553 47.743 33.6113 45.833 36.6663 47.743"></polygon>
                    <polygon id="Fill-32" points="48.8887 49.653 45.8337 47.743 48.8887 45.833 51.9447 47.743"></polygon>
                    <polygon id="Fill-33" points="64.1665 49.653 61.1115 47.743 64.1665 45.833 67.2225 47.743"></polygon>
                    <polygon id="Fill-34" points="79.4443 49.653 76.3883 47.743 79.4443 45.833 82.5003 47.743"></polygon>
                    <polygon id="Fill-35" points="3.0557 64.9308 -0.0003 63.0208 3.0557 61.1108 6.1117 63.0208"></polygon>
                    <polygon id="Fill-36" points="18.3335 64.9308 15.2775 63.0208 18.3335 61.1108 21.3885 63.0208"></polygon>
                    <polygon id="Fill-37" points="33.6113 64.9308 30.5553 63.0208 33.6113 61.1108 36.6663 63.0208"></polygon>
                    <polygon id="Fill-38" points="48.8887 64.9308 45.8337 63.0208 48.8887 61.1108 51.9447 63.0208"></polygon>
                    <polygon id="Fill-39" points="64.1665 64.9308 61.1115 63.0208 64.1665 61.1108 67.2225 63.0208"></polygon>
                    <polygon id="Fill-40" points="79.4443 64.9308 76.3883 63.0208 79.4443 61.1108 82.5003 63.0208"></polygon>
                    <polygon id="Fill-41" points="18.3335 80.2082 15.2775 78.2982 18.3335 76.3892 21.3885 78.2982"></polygon>
                    <polygon id="Fill-42" points="33.6113 80.2082 30.5553 78.2982 33.6113 76.3892 36.6663 78.2982"></polygon>
                    <polygon id="Fill-43" points="48.8887 80.2082 45.8337 78.2982 48.8887 76.3892 51.9447 78.2982"></polygon>
                    <polygon id="Fill-44" points="64.1665 80.2082 61.1115 78.2982 64.1665 76.3892 67.2225 78.2982"></polygon>
                </g>
                <g id="universe-wordmark" transform="translate(150.000000, 46.371100)">
                    <path d="M16.6895,22.903 C16.6895,24.713 16.3285,26.019 15.6145,26.786 C14.9085,27.545 13.6975,27.929 12.0135,27.929 C10.3605,27.929 9.1645,27.545 8.4585,26.786 C7.7465,26.021 7.3845,24.715 7.3845,22.903 L7.3845,8.687 L0.8695,8.687 L0.8695,22.164 C0.8695,25.762 1.8585,28.626 3.8085,30.673 C5.7635,32.724 8.5245,33.765 12.0135,33.765 C15.5025,33.765 18.2695,32.725 20.2405,30.674 C22.2075,28.627 23.2055,25.763 23.2055,22.164 L23.2055,8.687 L16.6895,8.687 L16.6895,22.903 Z" id="Fill-1"></path>
                    <path d="M40.6895,8.3122 C36.8355,8.3122 33.0825,9.2082 29.5305,10.9762 L29.3225,11.0802 L29.3225,33.3902 L35.8375,33.3902 L35.8375,14.5102 C38.5985,14.0442 41.3145,14.0252 42.8805,14.4842 C43.5945,14.6942 44.1085,15.0032 44.4095,15.4042 C44.7305,15.8332 44.9465,16.2442 45.0505,16.6252 C45.1585,17.0212 45.2125,17.5282 45.2125,18.1322 L45.2125,33.3902 L51.7285,33.3902 L51.7285,18.6252 C51.7285,15.3902 50.7375,12.8332 48.7825,11.0252 C46.8365,9.2252 44.1135,8.3122 40.6895,8.3122" id="Fill-3"></path>
                    <polygon id="Fill-5" points="58.314 6.1793 64.97 6.1793 64.97 0.1563 58.314 0.1563"></polygon>
                    <polygon id="Fill-7" points="58.408 33.3903 64.924 33.3903 64.924 8.6873 58.408 8.6873"></polygon>
                    <polygon id="Fill-8" points="82.0801 26.0524 76.3511 8.6874 69.3941 8.6874 78.8461 33.3904 85.3611 33.3904 94.8121 8.6874 87.8091 8.6874"></polygon>
                    <path d="M108.1895,13.7497 C109.5115,13.7497 110.5205,14.2547 111.2725,15.2917 C111.9805,16.2697 112.4335,17.4677 112.6215,18.8587 L103.7935,18.8587 C103.9725,17.0967 104.4145,15.8007 105.1085,15.0047 C105.8455,14.1597 106.8525,13.7497 108.1895,13.7497 M108.3305,8.2657 C104.5035,8.2657 101.6625,9.4757 99.8845,11.8617 C98.1325,14.2137 97.2445,17.3887 97.2445,21.2967 C97.2445,23.2777 97.4845,25.0547 97.9585,26.5757 C98.4355,28.1087 99.0615,29.3327 99.8175,30.2127 C100.5665,31.0867 101.4755,31.8167 102.5165,32.3837 C103.5515,32.9467 104.5705,33.3227 105.5435,33.5017 C106.4995,33.6767 107.5315,33.7657 108.6115,33.7657 C112.0175,33.7657 115.1145,33.0247 117.8135,31.5637 L118.0095,31.4577 L118.0095,26.0027 L117.4755,26.2547 C114.9135,27.4587 112.2225,28.0697 109.4785,28.0697 C107.8265,28.0697 106.4705,27.7347 105.4525,27.0757 C104.5435,26.4877 103.9875,25.3167 103.7955,23.5937 L119.2605,23.5937 L119.2945,23.2557 C119.3605,22.6037 119.3925,21.6177 119.3925,20.2417 C119.3925,16.9037 118.4545,14.0487 116.6025,11.7567 C114.7315,9.4397 111.9485,8.2657 108.3305,8.2657" id="Fill-9"></path>
                    <path d="M130.3018,9.0768 C128.1858,9.5558 126.8128,9.9188 126.1058,10.1808 C125.3948,10.4458 124.8568,10.6668 124.4578,10.8548 L124.2438,10.9568 L124.2438,33.3898 L130.7598,33.3898 L130.7598,14.7158 C132.3868,14.2738 134.3418,14.0368 136.5768,14.0078 L136.9478,14.0028 L136.9478,8.3058 L136.5668,8.3118 C134.4998,8.3438 132.3928,8.6008 130.3018,9.0768" id="Fill-10"></path>
                    <path d="M154.0791,19.0856 C152.9501,18.5856 151.8001,18.1836 150.6581,17.8896 C149.5611,17.6066 148.6241,17.2746 147.8701,16.9036 C147.2231,16.5866 146.9081,16.1776 146.9081,15.6546 C146.9081,14.5626 148.1701,14.0076 150.6581,14.0076 C152.6561,14.0076 154.4631,14.3836 156.0291,15.1236 L156.5641,15.3766 L156.5641,10.1816 L156.3761,10.0726 C154.3441,8.9046 152.0811,8.3126 149.6501,8.3126 C147.0481,8.3126 144.8381,8.9886 143.0831,10.3236 C141.2981,11.6846 140.3921,13.6506 140.3921,16.1716 C140.3921,17.7856 140.8171,19.1486 141.6551,20.2226 C142.4821,21.2816 143.4971,22.0546 144.6741,22.5166 C145.7971,22.9576 146.9351,23.3446 148.0581,23.6676 C149.1451,23.9816 150.0821,24.3506 150.8421,24.7656 C151.5071,25.1286 151.8301,25.5776 151.8301,26.1406 C151.8301,26.7916 151.6331,27.2596 151.2261,27.5706 C150.9311,27.7986 150.1681,28.0696 148.2211,28.0696 C145.9001,28.0696 143.6921,27.3796 141.6561,26.0176 L141.0721,25.6266 L141.0721,31.6596 L141.2641,31.7676 C143.6231,33.0936 146.2391,33.7656 149.0411,33.7656 C151.8041,33.7656 154.0631,33.0706 155.7571,31.7016 C157.4751,30.3126 158.3461,28.5366 158.3461,26.4226 C158.3461,24.5376 157.9261,22.9566 157.0991,21.7236 C156.2721,20.4926 155.2571,19.6056 154.0791,19.0856" id="Fill-11"></path>
                    <path d="M173.3223,13.7497 C174.6443,13.7497 175.6533,14.2547 176.4053,15.2917 C177.1133,16.2697 177.5663,17.4677 177.7543,18.8587 L168.9263,18.8587 C169.1053,17.0967 169.5473,15.8007 170.2413,15.0047 C170.9783,14.1597 171.9853,13.7497 173.3223,13.7497 M181.7353,11.7567 C179.8643,9.4397 177.0813,8.2657 173.4633,8.2657 C169.6363,8.2657 166.7953,9.4757 165.0173,11.8617 C163.2653,14.2137 162.3773,17.3887 162.3773,21.2967 C162.3773,23.2777 162.6173,25.0547 163.0913,26.5757 C163.5683,28.1087 164.1943,29.3327 164.9503,30.2127 C165.6993,31.0867 166.6083,31.8167 167.6493,32.3837 C168.6843,32.9467 169.7033,33.3227 170.6763,33.5017 C171.6323,33.6767 172.6643,33.7657 173.7443,33.7657 C177.1503,33.7657 180.2473,33.0247 182.9463,31.5637 L183.1423,31.4577 L183.1423,26.0027 L182.6083,26.2547 C180.0463,27.4587 177.3553,28.0697 174.6113,28.0697 C172.9593,28.0697 171.6033,27.7347 170.5853,27.0757 C169.6763,26.4877 169.1203,25.3167 168.9283,23.5937 L184.3933,23.5937 L184.4273,23.2557 C184.4933,22.6037 184.5253,21.6177 184.5253,20.2417 C184.5253,16.9037 183.5873,14.0487 181.7353,11.7567" id="Fill-12"></path>
                </g>
            </g>
        </g>
    </g>
</svg>